<?xml version="1.0" encoding="UTF-8"?>
<svg id="uuid-79648bde-fc4d-48d7-8638-76426958ed7e" data-name="Ebene 1" xmlns="http://www.w3.org/2000/svg" xmlns:xlink="http://www.w3.org/1999/xlink" viewBox="0 0 1366 768">
  <defs>
    <clipPath id="uuid-34192c57-4790-49e8-aea1-da194e17af55">
      <rect x="363.73" y="331.38" width="638.53" height="105.24" fill="none"/>
    </clipPath>
  </defs>
  <path d="M399.94,408.98v-24.65l-23.06-12.05,23.06,36.7ZM376.88,396.93l23.06,12.05-23.06-36.7h0,0s0,24.65,0,24.65Z" fill="#f6f6f6"/>
  <polygon points="401.13 382.09 378.23 370.04 401.29 358.2 424.36 370.11 401.13 382.09" fill="#f6f6f6"/>
  <polygon points="402.64 384.34 402.64 408.99 425.7 396.93 425.7 372.28 402.64 384.34" fill="#f6f6f6"/>
  <path d="M425.64,368.08v-24.65l-23.07-12.05,23.07,36.7ZM402.57,331.38v24.65l23.07,12.05-23.07-36.7Z" fill="#f6f6f6"/>
  <path d="M399.94,436.62v-24.65l-23.06-12.05,23.06,36.7ZM376.88,424.57l23.06,12.05-23.06-36.7v24.65Z" fill="#f6f6f6"/>
  <g clip-path="url(#uuid-34192c57-4790-49e8-aea1-da194e17af55)">
    <path d="M991.91,415.47v1.75h.05c.46-.74,1.04-1.28,1.75-1.62.71-.33,1.48-.5,2.33-.5,1.08,0,2.01.2,2.78.61.78.41,1.42.94,1.93,1.62.51.67.89,1.45,1.14,2.35s.37,1.82.37,2.8c0,.92-.12,1.8-.37,2.65-.25.85-.62,1.6-1.13,2.25-.5.65-1.13,1.17-1.88,1.56-.75.39-1.63.58-2.64.58-.85,0-1.63-.17-2.35-.52-.72-.35-1.3-.85-1.76-1.52h-.05v6.49h-3.76v-18.5h3.58ZM996.79,426.34c.42-.25.75-.57,1.01-.97.26-.4.44-.86.54-1.39.11-.53.16-1.07.16-1.62s-.06-1.09-.17-1.62c-.12-.53-.31-1-.57-1.42-.27-.41-.61-.75-1.02-1.01-.41-.26-.92-.38-1.52-.38s-1.14.13-1.55.38c-.42.26-.75.59-1.01.99-.26.41-.44.87-.54,1.4-.11.53-.16,1.08-.16,1.64s.06,1.09.17,1.62c.12.53.3.99.56,1.39.26.4.6.72,1.02.97.42.25.94.37,1.54.37s1.14-.12,1.55-.37M981.77,429.17v-1.91h-.08c-.48.8-1.1,1.37-1.85,1.72-.76.35-1.54.53-2.33.53-1.01,0-1.83-.13-2.48-.4s-1.15-.64-1.52-1.13c-.37-.49-.63-1.08-.78-1.78-.15-.7-.23-1.47-.23-2.32v-8.43h3.76v7.74c0,1.13.18,1.98.53,2.53.35.56.98.84,1.88.84,1.02,0,1.77-.31,2.23-.91.46-.61.69-1.61.69-3.01v-7.18h3.76v13.7h-3.58ZM970.69,415.47v2.52h-2.76v6.78c0,.64.11,1.06.32,1.27.21.21.64.32,1.27.32.21,0,.41,0,.61-.03.19-.02.38-.04.56-.08v2.91c-.32.05-.67.09-1.06.11-.39.02-.77.03-1.14.03-.58,0-1.14-.04-1.66-.12-.52-.08-.98-.23-1.38-.46-.4-.23-.71-.56-.94-.98-.23-.42-.35-.98-.35-1.67v-8.08h-2.28v-2.52h2.28v-4.11h3.76v4.11h2.76ZM952.08,425.89c.57.55,1.38.82,2.44.82.76,0,1.41-.19,1.96-.57.55-.38.88-.78,1.01-1.21h3.31c-.53,1.64-1.34,2.82-2.44,3.53-1.1.71-2.42,1.06-3.98,1.06-1.08,0-2.05-.17-2.91-.52-.87-.35-1.6-.84-2.2-1.47-.6-.64-1.06-1.39-1.39-2.28-.33-.88-.49-1.86-.49-2.91s.17-1.98.5-2.86c.34-.88.81-1.65,1.43-2.29.62-.64,1.36-1.15,2.21-1.52.86-.37,1.81-.56,2.85-.56,1.17,0,2.18.23,3.05.68.87.45,1.58,1.06,2.13,1.81.56.76.96,1.63,1.21,2.6.25.97.34,1.99.26,3.05h-9.88c.05,1.22.36,2.1.93,2.65M956.33,418.68c-.45-.49-1.14-.74-2.05-.74-.6,0-1.1.1-1.5.31-.4.2-.71.45-.95.75-.24.3-.41.62-.5.95-.1.34-.16.64-.17.9h6.12c-.18-.95-.49-1.68-.94-2.17M936.74,425.89c.57.55,1.38.82,2.44.82.76,0,1.41-.19,1.96-.57.55-.38.88-.78,1.01-1.21h3.31c-.53,1.64-1.34,2.82-2.44,3.53-1.1.71-2.42,1.06-3.98,1.06-1.08,0-2.05-.17-2.91-.52-.86-.35-1.6-.84-2.2-1.47-.6-.64-1.07-1.39-1.39-2.28-.33-.88-.49-1.86-.49-2.91s.17-1.98.5-2.86c.34-.88.81-1.65,1.43-2.29.62-.64,1.36-1.15,2.21-1.52.86-.37,1.81-.56,2.85-.56,1.17,0,2.18.23,3.05.68.86.45,1.58,1.06,2.13,1.81.56.76.96,1.63,1.21,2.6.25.97.34,1.99.27,3.05h-9.89c.05,1.22.36,2.1.93,2.65M940.99,418.68c-.45-.49-1.13-.74-2.05-.74-.6,0-1.1.1-1.5.31-.4.2-.72.45-.95.75-.24.3-.41.62-.5.95-.1.34-.15.64-.17.9h6.12c-.18-.95-.49-1.68-.94-2.17M914.9,410.25l4.43,13.01h.05l4.19-13.01h5.86v18.92h-3.9v-13.41h-.05l-4.64,13.41h-3.21l-4.64-13.28h-.05v13.28h-3.9v-18.92h5.86ZM889.14,415.47v1.91h.08c.48-.8,1.09-1.37,1.85-1.74.76-.36,1.54-.54,2.33-.54,1.01,0,1.83.14,2.48.41.64.27,1.15.65,1.52,1.14s.63,1.08.78,1.77c.15.7.23,1.47.23,2.32v8.43h-3.76v-7.74c0-1.13-.18-1.97-.53-2.53-.35-.56-.98-.83-1.88-.83-1.03,0-1.77.3-2.23.91-.46.61-.69,1.61-.69,3.01v7.18h-3.76v-13.7h3.58ZM869.48,419.35c.34-.89.81-1.65,1.43-2.28.62-.63,1.36-1.11,2.23-1.46.86-.34,1.84-.52,2.92-.52s2.05.17,2.93.52c.87.34,1.62.83,2.24,1.46.62.63,1.09,1.39,1.43,2.28s.5,1.89.5,2.98-.17,2.08-.5,2.97c-.34.88-.81,1.64-1.43,2.27-.62.63-1.36,1.11-2.24,1.44-.88.34-1.85.5-2.93.5s-2.05-.17-2.92-.5c-.87-.34-1.61-.82-2.23-1.44-.62-.63-1.1-1.38-1.43-2.27-.34-.88-.5-1.87-.5-2.97s.17-2.09.5-2.98M872.9,423.94c.11.52.29.99.54,1.4.26.41.6.75,1.02.99.42.25.95.37,1.59.37s1.17-.12,1.6-.37c.43-.25.78-.58,1.03-.99.26-.41.44-.88.54-1.4.11-.52.16-1.06.16-1.6s-.05-1.09-.16-1.62c-.11-.53-.29-1-.54-1.4-.26-.41-.6-.74-1.03-.99-.43-.26-.97-.38-1.6-.38s-1.17.13-1.59.38c-.42.26-.76.59-1.02.99-.26.41-.44.87-.54,1.4-.11.53-.16,1.07-.16,1.62s.05,1.08.16,1.6M857.5,410.25v7.13h.08c.48-.8,1.09-1.37,1.83-1.74.74-.36,1.47-.54,2.17-.54,1.01,0,1.83.14,2.48.41.65.27,1.15.65,1.52,1.14s.63,1.08.78,1.77c.15.7.23,1.47.23,2.32v8.43h-3.76v-7.74c0-1.13-.18-1.97-.53-2.53-.35-.56-.98-.83-1.88-.83-1.02,0-1.77.3-2.23.91-.46.61-.69,1.61-.69,3.01v7.18h-3.76v-18.92h3.76ZM851.72,415.47v2.52h-2.76v6.78c0,.64.11,1.06.32,1.27.21.21.64.32,1.27.32.21,0,.41,0,.61-.03.19-.02.38-.04.56-.08v2.91c-.32.05-.67.09-1.06.11-.39.02-.77.03-1.14.03-.58,0-1.13-.04-1.66-.12-.52-.08-.98-.23-1.38-.46-.4-.23-.71-.56-.94-.98-.23-.42-.34-.98-.34-1.67v-8.08h-2.28v-2.52h2.28v-4.11h3.76v4.11h2.76ZM834.58,433.25c-.73.48-1.73.72-3.02.72-.39,0-.77-.01-1.15-.04-.38-.03-.76-.06-1.15-.09v-3.1c.35.04.72.07,1.09.11.37.04.74.04,1.11.03.49-.05.86-.25,1.1-.58.24-.34.36-.71.36-1.11,0-.3-.05-.58-.16-.85l-4.8-12.85h4l3.1,9.38h.05l2.99-9.38h3.9l-5.72,15.4c-.41,1.11-.97,1.91-1.7,2.39M820.2,410.25c1.18,0,2.19.17,3.02.52.83.34,1.51.8,2.03,1.36.52.57.9,1.21,1.14,1.94.24.72.36,1.47.36,2.25s-.12,1.51-.36,2.24c-.24.73-.62,1.38-1.14,1.95-.52.57-1.2,1.02-2.03,1.36-.83.35-1.84.52-3.02.52h-4.37v6.78h-4.16v-18.92h8.53ZM819.06,419.16c.48,0,.94-.03,1.38-.11.44-.07.83-.21,1.17-.41.33-.2.61-.49.81-.86s.3-.86.3-1.46-.1-1.09-.3-1.46c-.2-.37-.47-.66-.81-.86-.34-.2-.73-.34-1.17-.41-.44-.07-.9-.11-1.38-.11h-3.23v5.67h3.23ZM791.76,415.47v1.91h.08c.48-.8,1.1-1.37,1.86-1.74.76-.36,1.54-.54,2.33-.54,1.01,0,1.83.14,2.48.41.64.27,1.15.65,1.52,1.14.37.49.63,1.08.78,1.77.15.7.23,1.47.23,2.32v8.43h-3.76v-7.74c0-1.13-.18-1.97-.53-2.53-.35-.56-.98-.83-1.88-.83-1.02,0-1.77.3-2.23.91-.46.61-.69,1.61-.69,3.01v7.18h-3.76v-13.7h3.58ZM785.17,429.17h-3.76v-13.7h3.76v13.7ZM781.41,410.25h3.76v3.1h-3.76v-3.1ZM762.76,425.89c.57.55,1.38.82,2.44.82.76,0,1.41-.19,1.96-.57.55-.38.88-.78,1.01-1.21h3.31c-.53,1.64-1.34,2.82-2.44,3.53-1.1.71-2.42,1.06-3.98,1.06-1.08,0-2.05-.17-2.92-.52-.86-.35-1.6-.84-2.2-1.47-.6-.64-1.06-1.39-1.39-2.28-.33-.88-.49-1.86-.49-2.91s.17-1.98.5-2.86c.33-.88.81-1.65,1.43-2.29.62-.64,1.36-1.15,2.21-1.52.86-.37,1.81-.56,2.85-.56,1.17,0,2.18.23,3.05.68.86.45,1.58,1.06,2.13,1.81.56.76.96,1.63,1.21,2.6.25.97.34,1.99.27,3.05h-9.89c.05,1.22.36,2.1.93,2.65M767.01,418.68c-.45-.49-1.14-.74-2.05-.74-.6,0-1.1.1-1.5.31-.4.2-.71.45-.95.75-.24.3-.41.62-.5.95-.1.34-.15.64-.17.9h6.12c-.18-.95-.49-1.68-.94-2.17M749.92,417.94c-.6,0-1.11.14-1.51.41s-.74.63-.99,1.06c-.26.43-.44.91-.54,1.43-.11.52-.16,1.04-.16,1.55s.05,1,.16,1.51c.11.51.28.98.52,1.39.24.41.56.75.97,1.02.41.27.9.4,1.48.4.9,0,1.59-.25,2.08-.76.49-.5.79-1.18.91-2.03h3.63c-.25,1.82-.95,3.21-2.12,4.16-1.17.95-2.66,1.43-4.48,1.43-1.02,0-1.97-.17-2.82-.52-.86-.35-1.59-.83-2.19-1.44-.6-.62-1.07-1.36-1.4-2.21-.34-.86-.5-1.8-.5-2.82s.15-2.04.46-2.95c.31-.91.76-1.7,1.36-2.36.6-.66,1.33-1.18,2.2-1.55.87-.37,1.86-.56,2.97-.56.81,0,1.59.11,2.35.32.75.21,1.42.53,2.01.97.59.43,1.07.97,1.44,1.62.37.64.58,1.41.64,2.29h-3.68c-.25-1.57-1.17-2.36-2.78-2.36M731.3,415.47v1.91h.08c.48-.8,1.1-1.37,1.86-1.74.76-.36,1.54-.54,2.33-.54,1.01,0,1.83.14,2.48.41.64.27,1.15.65,1.52,1.14s.63,1.08.78,1.77c.15.7.23,1.47.23,2.32v8.43h-3.76v-7.74c0-1.13-.18-1.97-.53-2.53-.35-.56-.98-.83-1.88-.83-1.02,0-1.77.3-2.23.91-.46.61-.69,1.61-.69,3.01v7.18h-3.76v-13.7h3.58ZM716.46,425.89c.56.55,1.38.82,2.44.82.76,0,1.41-.19,1.96-.57.55-.38.88-.78,1.01-1.21h3.31c-.53,1.64-1.34,2.82-2.44,3.53-1.1.71-2.42,1.06-3.98,1.06-1.08,0-2.05-.17-2.92-.52-.86-.35-1.6-.84-2.2-1.47-.6-.64-1.06-1.39-1.39-2.28-.33-.88-.49-1.86-.49-2.91s.17-1.98.5-2.86c.33-.88.81-1.65,1.43-2.29.62-.64,1.36-1.15,2.21-1.52.86-.37,1.81-.56,2.85-.56,1.17,0,2.18.23,3.05.68.86.45,1.58,1.06,2.13,1.81.56.76.96,1.63,1.21,2.6.25.97.33,1.99.27,3.05h-9.89c.05,1.22.36,2.1.93,2.65M720.72,418.68c-.45-.49-1.14-.74-2.05-.74-.6,0-1.1.1-1.5.31-.4.2-.71.45-.95.75-.24.3-.41.62-.5.95-.1.34-.15.64-.17.9h6.12c-.18-.95-.49-1.68-.94-2.17M709.18,430.18c-.15.71-.47,1.36-.97,1.97-.49.61-1.21,1.13-2.15,1.55-.94.42-2.19.64-3.76.64-.67,0-1.36-.08-2.05-.25-.7-.17-1.33-.43-1.91-.78-.57-.35-1.05-.81-1.43-1.36-.38-.56-.6-1.22-.65-2h3.74c.18.71.52,1.2,1.03,1.47.51.27,1.1.41,1.77.41,1.06,0,1.83-.32,2.32-.95s.72-1.44.7-2.41v-1.8h-.05c-.41.72-.99,1.26-1.74,1.6-.75.34-1.54.52-2.37.52-1.02,0-1.91-.18-2.65-.54-.74-.36-1.35-.86-1.83-1.48-.48-.63-.83-1.36-1.05-2.2-.22-.84-.33-1.73-.33-2.66,0-.88.13-1.74.39-2.56.26-.82.63-1.54,1.13-2.17.49-.63,1.11-1.13,1.84-1.5.73-.37,1.58-.56,2.53-.56.9,0,1.69.17,2.37.5.68.34,1.25.9,1.71,1.7h.05v-1.83h3.58v12.83c0,.55-.08,1.17-.23,1.88M704.02,425.62c.41-.21.74-.49,1.01-.85.26-.35.46-.76.6-1.21.13-.45.2-.92.2-1.42,0-.56-.05-1.1-.16-1.6-.11-.5-.28-.95-.53-1.34-.25-.39-.57-.7-.98-.93-.41-.23-.92-.34-1.54-.34-.53,0-.98.11-1.36.32-.38.21-.7.5-.95.86-.26.36-.44.78-.56,1.25-.12.47-.17.96-.17,1.47s.05.98.15,1.47c.1.49.27.92.5,1.31.24.39.55.71.94.95.39.25.88.37,1.46.37.53,0,1-.11,1.4-.32M693.28,429.17h-3.76v-13.7h3.76v13.7ZM689.52,410.25h3.76v3.1h-3.76v-3.1ZM686.46,429.17h-3.76v-18.92h3.76v18.92ZM679.63,429.17h-3.76v-18.92h3.76v18.92ZM664.57,425.89c.57.55,1.38.82,2.44.82.76,0,1.41-.19,1.96-.57.55-.38.88-.78,1.01-1.21h3.31c-.53,1.64-1.34,2.82-2.44,3.53-1.1.71-2.42,1.06-3.98,1.06-1.08,0-2.05-.17-2.92-.52-.87-.35-1.6-.84-2.2-1.47-.6-.64-1.06-1.39-1.39-2.28-.33-.88-.49-1.86-.49-2.91s.17-1.98.5-2.86c.34-.88.81-1.65,1.43-2.29.62-.64,1.36-1.15,2.21-1.52.86-.37,1.81-.56,2.85-.56,1.17,0,2.18.23,3.05.68.87.45,1.58,1.06,2.13,1.81.56.76.96,1.63,1.2,2.6.25.97.34,1.99.27,3.05h-9.88c.05,1.22.36,2.1.93,2.65M668.83,418.68c-.45-.49-1.14-.74-2.05-.74-.6,0-1.1.1-1.5.31-.4.2-.72.45-.95.75-.24.3-.41.62-.5.95-.1.34-.15.64-.17.9h6.12c-.18-.95-.49-1.68-.94-2.17M658.81,415.47v2.52h-2.76v6.78c0,.64.11,1.06.32,1.27.21.21.64.32,1.27.32.21,0,.42,0,.61-.03.2-.02.38-.04.56-.08v2.91c-.32.05-.67.09-1.06.11-.39.02-.77.03-1.14.03-.58,0-1.14-.04-1.66-.12-.52-.08-.98-.23-1.38-.46-.4-.23-.71-.56-.94-.98-.23-.42-.34-.98-.34-1.67v-8.08h-2.28v-2.52h2.28v-4.11h3.76v4.11h2.76ZM639.17,415.47v1.91h.08c.48-.8,1.1-1.37,1.86-1.74.76-.36,1.54-.54,2.33-.54,1.01,0,1.83.14,2.48.41.65.27,1.15.65,1.52,1.14s.63,1.08.78,1.77c.15.7.23,1.47.23,2.32v8.43h-3.76v-7.74c0-1.13-.18-1.97-.53-2.53-.35-.56-.98-.83-1.88-.83-1.03,0-1.77.3-2.23.91-.46.61-.69,1.61-.69,3.01v7.18h-3.76v-13.7h3.58ZM632.29,429.17h-4.16v-18.92h4.16v18.92ZM617.4,429.17h-3.76v-18.92h3.76v18.92ZM606.83,423.87c0,.21-.02.49-.07.85-.04.35-.16.7-.36,1.05-.2.34-.49.64-.9.89-.41.25-.98.37-1.72.37-.3,0-.59-.03-.87-.08-.28-.05-.53-.15-.74-.28-.21-.13-.38-.31-.5-.54-.12-.23-.18-.51-.18-.85,0-.35.06-.64.18-.87.12-.23.29-.42.49-.57.2-.15.44-.27.71-.36.27-.09.55-.16.83-.21.3-.05.6-.1.9-.13.3-.03.59-.08.86-.13.27-.05.53-.12.77-.2.24-.08.44-.19.6-.33v1.4ZM601.9,419.69c.07-.74.32-1.27.74-1.59.42-.32,1.01-.48,1.75-.48.34,0,.65.02.94.07.29.05.55.13.77.27.22.13.4.32.53.56.13.24.2.56.2.97.02.39-.1.69-.35.89-.25.2-.58.36-1.01.46-.42.11-.91.18-1.46.24-.55.05-1.1.12-1.67.21-.57.09-1.13.21-1.68.36-.56.15-1.05.38-1.48.68-.43.3-.79.7-1.06,1.21-.27.5-.41,1.14-.41,1.92,0,.71.12,1.32.36,1.83.24.51.57.94.99,1.27.42.34.92.58,1.48.74.57.16,1.17.24,1.83.24.85,0,1.68-.12,2.49-.37.81-.25,1.52-.68,2.12-1.3.02.23.05.46.09.68.04.22.1.44.17.65h3.82c-.18-.28-.3-.71-.37-1.27-.07-.56-.11-1.16-.11-1.77v-7.13c0-.83-.19-1.5-.56-2-.37-.5-.85-.9-1.43-1.18-.58-.28-1.23-.47-1.93-.57-.71-.1-1.4-.15-2.09-.15-.76,0-1.52.08-2.27.23-.75.15-1.43.4-2.03.76-.6.35-1.1.82-1.48,1.4-.39.58-.61,1.32-.66,2.2h3.76ZM595.26,429.17h-3.76v-13.7h3.76v13.7ZM591.5,410.25h3.76v3.1h-3.76v-3.1ZM582.69,417.94c-.6,0-1.1.14-1.51.41-.41.27-.74.63-.99,1.06-.26.43-.44.91-.54,1.43-.11.52-.16,1.04-.16,1.55s.05,1,.16,1.51c.11.51.28.98.52,1.39.24.41.56.75.97,1.02.41.27.9.4,1.48.4.9,0,1.59-.25,2.08-.76.49-.5.79-1.18.91-2.03h3.63c-.25,1.82-.95,3.21-2.12,4.16-1.17.95-2.66,1.43-4.48,1.43-1.03,0-1.97-.17-2.82-.52-.86-.35-1.59-.83-2.19-1.44-.6-.62-1.07-1.36-1.4-2.21-.34-.86-.5-1.8-.5-2.82s.15-2.04.46-2.95c.31-.91.76-1.7,1.36-2.36.6-.66,1.33-1.18,2.2-1.55.86-.37,1.85-.56,2.97-.56.81,0,1.59.11,2.35.32.75.21,1.42.53,2.01.97.59.43,1.07.97,1.44,1.62.37.64.58,1.41.64,2.29h-3.68c-.25-1.57-1.18-2.36-2.78-2.36M569.49,410.25h3.76v3.1h-3.76v-3.1ZM573.25,429.17h-3.76v-13.7h3.76v13.7ZM558.59,417.99v-2.52h2.25v-1.06c0-1.22.38-2.22,1.14-3,.76-.78,1.91-1.17,3.44-1.17.34,0,.67.01,1.01.04.34.03.66.05.98.07v2.81c-.44-.05-.9-.08-1.38-.08-.51,0-.88.12-1.1.36-.22.24-.33.64-.33,1.21v.82h2.6v2.52h-2.6v11.18h-3.76v-11.18h-2.25ZM556.89,429.17h-3.76v-13.7h3.76v13.7ZM553.13,410.25h3.76v3.1h-3.76v-3.1ZM551.02,415.47v2.52h-2.76v6.78c0,.64.11,1.06.32,1.27.21.21.64.32,1.27.32.21,0,.41,0,.61-.03.19-.02.38-.04.56-.08v2.91c-.32.05-.67.09-1.06.11-.39.02-.77.03-1.14.03-.58,0-1.14-.04-1.66-.12-.52-.08-.98-.23-1.38-.46-.4-.23-.71-.56-.94-.98-.23-.42-.35-.98-.35-1.67v-8.08h-2.28v-2.52h2.28v-4.11h3.76v4.11h2.76ZM535.95,415.47v2.54h.05c.18-.42.41-.82.72-1.18.3-.36.64-.67,1.03-.93s.8-.45,1.25-.6c.44-.14.9-.21,1.38-.21.25,0,.52.04.82.13v3.5c-.18-.03-.39-.07-.64-.09-.25-.03-.49-.04-.71-.04-.69,0-1.27.11-1.75.34-.48.23-.86.54-1.15.94-.29.4-.5.86-.62,1.39-.12.53-.18,1.1-.18,1.72v6.17h-3.76v-13.7h3.58ZM523.76,410.25l7.07,18.92h-4.32l-1.43-4.21h-7.08l-1.48,4.21h-4.19l7.15-18.92h4.27ZM524,421.86l-2.38-6.94h-.05l-2.46,6.94h4.9ZM495.38,425.89c.57.55,1.38.82,2.44.82.76,0,1.41-.19,1.96-.57.55-.38.88-.78,1.01-1.21h3.31c-.53,1.64-1.34,2.82-2.44,3.53-1.1.71-2.42,1.06-3.98,1.06-1.08,0-2.05-.17-2.91-.52-.87-.35-1.6-.84-2.2-1.47-.6-.64-1.06-1.39-1.39-2.28-.33-.88-.49-1.86-.49-2.91s.17-1.98.5-2.86c.34-.88.81-1.65,1.43-2.29.62-.64,1.36-1.15,2.21-1.52.86-.37,1.81-.56,2.85-.56,1.17,0,2.18.23,3.05.68.87.45,1.58,1.06,2.13,1.81.56.76.96,1.63,1.21,2.6.25.97.34,1.99.26,3.05h-9.88c.05,1.22.36,2.1.93,2.65M499.63,418.68c-.45-.49-1.14-.74-2.05-.74-.6,0-1.1.1-1.5.31-.4.2-.72.45-.95.75-.24.3-.41.62-.5.95-.1.34-.15.64-.17.9h6.12c-.18-.95-.49-1.68-.94-2.17M479.34,410.25v7.13h.08c.48-.8,1.09-1.37,1.83-1.74.74-.36,1.47-.54,2.17-.54,1.01,0,1.83.14,2.48.41.65.27,1.15.65,1.52,1.14s.63,1.08.78,1.77c.15.7.23,1.47.23,2.32v8.43h-3.76v-7.74c0-1.13-.18-1.97-.53-2.53-.35-.56-.98-.83-1.88-.83-1.03,0-1.77.3-2.23.91-.46.61-.69,1.61-.69,3.01v7.18h-3.76v-18.92h3.76ZM458.28,413.75v-3.5h15.5v3.5h-5.67v15.42h-4.16v-15.42h-5.67Z" fill="#fff"/>
    <path d="M978.85,358.15v4.32h.18c1.08-1.8,2.48-3.11,4.2-3.93,1.72-.82,3.48-1.23,5.28-1.23,2.28,0,4.15.31,5.61.93,1.46.62,2.61,1.48,3.45,2.58.84,1.1,1.43,2.44,1.77,4.02.34,1.58.51,3.33.51,5.25v19.08h-8.52v-17.52c0-2.56-.4-4.47-1.2-5.73-.8-1.26-2.22-1.89-4.26-1.89-2.32,0-4,.69-5.04,2.07-1.04,1.38-1.56,3.65-1.56,6.81v16.26h-8.52v-31.02h8.1ZM964.48,389.17h-8.52v-31.02h8.52v31.02ZM955.96,346.33h8.52v7.02h-8.52v-7.02ZM941.12,377.17c0,.48-.05,1.12-.15,1.92-.1.8-.37,1.59-.81,2.37-.44.78-1.12,1.45-2.04,2.01-.92.56-2.22.84-3.9.84-.68,0-1.34-.06-1.98-.18-.64-.12-1.2-.33-1.68-.63-.48-.3-.86-.71-1.14-1.23-.28-.52-.42-1.16-.42-1.92,0-.8.14-1.46.42-1.98.28-.52.65-.95,1.11-1.29.46-.34,1-.61,1.62-.81.62-.2,1.25-.36,1.89-.48.68-.12,1.36-.22,2.04-.3.68-.08,1.33-.18,1.95-.3.62-.12,1.2-.27,1.74-.45.54-.18.99-.43,1.35-.75v3.18ZM929.96,367.69c.16-1.68.72-2.88,1.68-3.6s2.28-1.08,3.96-1.08c.76,0,1.47.05,2.13.15.66.1,1.24.3,1.74.6.5.3.9.72,1.2,1.26.3.54.45,1.27.45,2.19.04.88-.22,1.55-.78,2.01-.56.46-1.32.81-2.28,1.05s-2.06.42-3.3.54c-1.24.12-2.5.28-3.78.48-1.28.2-2.55.47-3.81.81-1.26.34-2.38.85-3.36,1.53-.98.68-1.78,1.59-2.4,2.73-.62,1.14-.93,2.59-.93,4.35,0,1.6.27,2.98.81,4.14.54,1.16,1.29,2.12,2.25,2.88.96.76,2.08,1.32,3.36,1.68,1.28.36,2.66.54,4.14.54,1.92,0,3.8-.28,5.64-.84,1.84-.56,3.44-1.54,4.8-2.94.04.52.11,1.03.21,1.53.1.5.23.99.39,1.47h8.64c-.4-.64-.68-1.6-.84-2.88-.16-1.28-.24-2.62-.24-4.02v-16.14c0-1.88-.42-3.39-1.26-4.53s-1.92-2.03-3.24-2.67c-1.32-.64-2.78-1.07-4.38-1.29-1.6-.22-3.18-.33-4.74-.33-1.72,0-3.43.17-5.13.51-1.7.34-3.23.91-4.59,1.71-1.36.8-2.48,1.86-3.36,3.18-.88,1.32-1.38,2.98-1.5,4.98h8.52ZM882.02,346.33l10.02,29.46h.12l9.48-29.46h13.26v42.84h-8.82v-30.36h-.12l-10.5,30.36h-7.26l-10.5-30.06h-.12v30.06h-8.82v-42.84h13.26ZM861.84,376.45h-18.06v-7.32h18.06v7.32ZM816.86,358.15v4.32h.18c1.08-1.8,2.48-3.11,4.2-3.93,1.72-.82,3.48-1.23,5.28-1.23,2.28,0,4.15.31,5.61.93,1.46.62,2.61,1.48,3.45,2.58.84,1.1,1.43,2.44,1.77,4.02.34,1.58.51,3.33.51,5.25v19.08h-8.52v-17.52c0-2.56-.4-4.47-1.2-5.73-.8-1.26-2.22-1.89-4.26-1.89-2.32,0-4,.69-5.04,2.07-1.04,1.38-1.56,3.65-1.56,6.81v16.26h-8.52v-31.02h8.1ZM802.49,389.17h-8.52v-31.02h8.52v31.02ZM793.97,346.33h8.52v7.02h-8.52v-7.02ZM768.96,381.73c1.28,1.24,3.12,1.86,5.52,1.86,1.72,0,3.2-.43,4.44-1.29,1.24-.86,2-1.77,2.28-2.73h7.5c-1.2,3.72-3.04,6.38-5.52,7.98-2.48,1.6-5.48,2.4-9,2.4-2.44,0-4.64-.39-6.6-1.17-1.96-.78-3.62-1.89-4.98-3.33-1.36-1.44-2.41-3.16-3.15-5.16-.74-2-1.11-4.2-1.11-6.6s.38-4.48,1.14-6.48c.76-2,1.84-3.73,3.24-5.19,1.4-1.46,3.07-2.61,5.01-3.45,1.94-.84,4.09-1.26,6.45-1.26,2.64,0,4.94.51,6.9,1.53,1.96,1.02,3.57,2.39,4.83,4.11,1.26,1.72,2.17,3.68,2.73,5.88.56,2.2.76,4.5.6,6.9h-22.38c.12,2.76.82,4.76,2.1,6M778.59,365.41c-1.02-1.12-2.57-1.68-4.65-1.68-1.36,0-2.49.23-3.39.69-.9.46-1.62,1.03-2.16,1.71-.54.68-.92,1.4-1.14,2.16-.22.76-.35,1.44-.39,2.04h13.86c-.4-2.16-1.11-3.8-2.13-4.92M733.2,346.33v16.14h.18c1.08-1.8,2.46-3.11,4.14-3.93,1.68-.82,3.32-1.23,4.92-1.23,2.28,0,4.15.31,5.61.93,1.46.62,2.61,1.48,3.45,2.58.84,1.1,1.43,2.44,1.77,4.02.34,1.58.51,3.33.51,5.25v19.08h-8.52v-17.52c0-2.56-.4-4.47-1.2-5.73-.8-1.26-2.22-1.89-4.26-1.89-2.32,0-4,.69-5.04,2.07-1.04,1.38-1.56,3.65-1.56,6.81v16.26h-8.52v-42.84h8.52ZM705.91,346.33c1.92,0,3.65.31,5.19.93,1.54.62,2.86,1.47,3.96,2.55,1.1,1.08,1.94,2.33,2.52,3.75.58,1.42.87,2.95.87,4.59,0,2.52-.53,4.7-1.59,6.54-1.06,1.84-2.79,3.24-5.19,4.2v.12c1.16.32,2.12.81,2.88,1.47.76.66,1.38,1.44,1.86,2.34.48.9.83,1.89,1.05,2.97.22,1.08.37,2.16.45,3.24.04.68.08,1.48.12,2.4.04.92.11,1.86.21,2.82.1.96.26,1.87.48,2.73.22.86.55,1.59.99,2.19h-9.42c-.52-1.36-.84-2.98-.96-4.86-.12-1.88-.3-3.68-.54-5.4-.32-2.24-1-3.88-2.04-4.92-1.04-1.04-2.74-1.56-5.1-1.56h-9.42v16.74h-9.42v-42.84h23.1ZM702.55,365.71c2.16,0,3.78-.48,4.86-1.44,1.08-.96,1.62-2.52,1.62-4.68s-.54-3.59-1.62-4.53c-1.08-.94-2.7-1.41-4.86-1.41h-10.32v12.06h10.32ZM650.11,377.17c0,.48-.05,1.12-.15,1.92-.1.8-.37,1.59-.81,2.37-.44.78-1.12,1.45-2.04,2.01-.92.56-2.22.84-3.9.84-.68,0-1.34-.06-1.98-.18-.64-.12-1.2-.33-1.68-.63-.48-.3-.86-.71-1.14-1.23-.28-.52-.42-1.16-.42-1.92,0-.8.14-1.46.42-1.98.28-.52.65-.95,1.11-1.29.46-.34,1-.61,1.62-.81.62-.2,1.25-.36,1.89-.48.68-.12,1.36-.22,2.04-.3.68-.08,1.33-.18,1.95-.3.62-.12,1.2-.27,1.74-.45s.99-.43,1.35-.75v3.18ZM638.95,367.69c.16-1.68.72-2.88,1.68-3.6s2.28-1.08,3.96-1.08c.76,0,1.47.05,2.13.15.66.1,1.24.3,1.74.6.5.3.9.72,1.2,1.26s.45,1.27.45,2.19c.04.88-.22,1.55-.78,2.01-.56.46-1.32.81-2.28,1.05-.96.24-2.06.42-3.3.54-1.24.12-2.5.28-3.78.48-1.28.2-2.55.47-3.81.81-1.26.34-2.38.85-3.36,1.53-.98.68-1.78,1.59-2.4,2.73-.62,1.14-.93,2.59-.93,4.35,0,1.6.27,2.98.81,4.14.54,1.16,1.29,2.12,2.25,2.88.96.76,2.08,1.32,3.36,1.68,1.28.36,2.66.54,4.14.54,1.92,0,3.8-.28,5.64-.84,1.84-.56,3.44-1.54,4.8-2.94.04.52.11,1.03.21,1.53.1.5.23.99.39,1.47h8.64c-.4-.64-.68-1.6-.84-2.88-.16-1.28-.24-2.62-.24-4.02v-16.14c0-1.88-.42-3.39-1.26-4.53-.84-1.14-1.92-2.03-3.24-2.67-1.32-.64-2.78-1.07-4.38-1.29-1.6-.22-3.18-.33-4.74-.33-1.72,0-3.43.17-5.13.51-1.7.34-3.23.91-4.59,1.71-1.36.8-2.48,1.86-3.36,3.18-.88,1.32-1.38,2.98-1.5,4.98h8.52ZM626.59,358.15v5.7h-6.24v15.36c0,1.44.24,2.4.72,2.88.48.48,1.44.72,2.88.72.48,0,.94-.02,1.38-.06.44-.04.86-.1,1.26-.18v6.6c-.72.12-1.52.2-2.4.24-.88.04-1.74.06-2.58.06-1.32,0-2.57-.09-3.75-.27-1.18-.18-2.22-.53-3.12-1.05-.9-.52-1.61-1.26-2.13-2.22-.52-.96-.78-2.22-.78-3.78v-18.3h-5.16v-5.7h5.16v-9.3h8.52v9.3h6.24ZM594.87,377.17c0,.48-.05,1.12-.15,1.92-.1.8-.37,1.59-.81,2.37-.44.78-1.12,1.45-2.04,2.01-.92.56-2.22.84-3.9.84-.68,0-1.34-.06-1.98-.18-.64-.12-1.2-.33-1.68-.63-.48-.3-.86-.71-1.14-1.23-.28-.52-.42-1.16-.42-1.92,0-.8.14-1.46.42-1.98.28-.52.65-.95,1.11-1.29.46-.34,1-.61,1.62-.81.62-.2,1.25-.36,1.89-.48.68-.12,1.36-.22,2.04-.3.68-.08,1.33-.18,1.95-.3s1.2-.27,1.74-.45c.54-.18.99-.43,1.35-.75v3.18ZM583.71,367.69c.16-1.68.72-2.88,1.68-3.6s2.28-1.08,3.96-1.08c.76,0,1.47.05,2.13.15.66.1,1.24.3,1.74.6.5.3.9.72,1.2,1.26.3.54.45,1.27.45,2.19.04.88-.22,1.55-.78,2.01-.56.46-1.32.81-2.28,1.05s-2.06.42-3.3.54c-1.24.12-2.5.28-3.78.48-1.28.2-2.55.47-3.81.81-1.26.34-2.38.85-3.36,1.53-.98.68-1.78,1.59-2.4,2.73-.62,1.14-.93,2.59-.93,4.35,0,1.6.27,2.98.81,4.14.54,1.16,1.29,2.12,2.25,2.88.96.76,2.08,1.32,3.36,1.68s2.66.54,4.14.54c1.92,0,3.8-.28,5.64-.84,1.84-.56,3.44-1.54,4.8-2.94.04.52.11,1.03.21,1.53.1.5.23.99.39,1.47h8.64c-.4-.64-.68-1.6-.84-2.88-.16-1.28-.24-2.62-.24-4.02v-16.14c0-1.88-.42-3.39-1.26-4.53-.84-1.14-1.92-2.03-3.24-2.67-1.32-.64-2.78-1.07-4.38-1.29-1.6-.22-3.18-.33-4.74-.33-1.72,0-3.43.17-5.13.51-1.7.34-3.23.91-4.59,1.71-1.36.8-2.48,1.86-3.36,3.18-.88,1.32-1.38,2.98-1.5,4.98h8.52ZM551.31,346.33c2.76,0,5.33.44,7.71,1.32,2.38.88,4.44,2.2,6.18,3.96,1.74,1.76,3.1,3.96,4.08,6.6s1.47,5.74,1.47,9.3c0,3.12-.4,6-1.2,8.64-.8,2.64-2.01,4.92-3.63,6.84s-3.64,3.43-6.06,4.53c-2.42,1.1-5.27,1.65-8.55,1.65h-18.48v-42.84h18.48ZM550.65,381.25c1.36,0,2.68-.22,3.96-.66,1.28-.44,2.42-1.17,3.42-2.19s1.8-2.35,2.4-3.99c.6-1.64.9-3.64.9-6,0-2.16-.21-4.11-.63-5.85-.42-1.74-1.11-3.23-2.07-4.47-.96-1.24-2.23-2.19-3.81-2.85-1.58-.66-3.53-.99-5.85-.99h-6.72v27h8.4ZM512.65,398.41c-1.64,1.08-3.92,1.62-6.84,1.62-.88,0-1.75-.03-2.61-.09-.86-.06-1.73-.13-2.61-.21v-7.02c.8.08,1.62.16,2.46.24.84.08,1.68.1,2.52.06,1.12-.12,1.95-.56,2.49-1.32.54-.76.81-1.6.81-2.52,0-.68-.12-1.32-.36-1.92l-10.86-29.1h9.06l7.02,21.24h.12l6.78-21.24h8.82l-12.96,34.86c-.92,2.52-2.2,4.32-3.84,5.4M480.59,346.33c2.68,0,4.96.39,6.84,1.17,1.88.78,3.41,1.81,4.59,3.09,1.18,1.28,2.04,2.74,2.58,4.38.54,1.64.81,3.34.81,5.1s-.27,3.41-.81,5.07c-.54,1.66-1.4,3.13-2.58,4.41-1.18,1.28-2.71,2.31-4.59,3.09-1.88.78-4.16,1.17-6.84,1.17h-9.9v15.36h-9.42v-42.84h19.32ZM478.01,366.49c1.08,0,2.12-.08,3.12-.24,1-.16,1.88-.47,2.64-.93.76-.46,1.37-1.11,1.83-1.95.46-.84.69-1.94.69-3.3s-.23-2.46-.69-3.3c-.46-.84-1.07-1.49-1.83-1.95-.76-.46-1.64-.77-2.64-.93-1-.16-2.04-.24-3.12-.24h-7.32v12.84h7.32Z" fill="#fff"/>
  </g>
</svg>