<?xml version="1.0" encoding="UTF-8"?>
<svg id="uuid-d00b59c4-bd63-4e6e-9828-7cf668c52d10" data-name="Ebene 1" xmlns="http://www.w3.org/2000/svg" xmlns:xlink="http://www.w3.org/1999/xlink" viewBox="0 0 1366 768">
  <defs>
    <clipPath id="uuid-e2ebb5c7-dcbd-4823-b64d-53573340bdbf">
      <rect x="189.88" y="153.04" width="1003.69" height="433.35" fill="none"/>
    </clipPath>
  </defs>
  <g clip-path="url(#uuid-e2ebb5c7-dcbd-4823-b64d-53573340bdbf)">
    <path d="M1179.11,398.17v2.44h.07c.64-1.04,1.46-1.79,2.44-2.26.99-.47,2.07-.7,3.26-.7,1.5,0,2.8.28,3.89.85,1.08.57,1.98,1.32,2.7,2.26.71.94,1.24,2.03,1.59,3.28.34,1.24.52,2.55.52,3.9,0,1.28-.17,2.52-.52,3.7-.35,1.18-.87,2.23-1.57,3.15-.7.91-1.58,1.64-2.63,2.18-1.05.54-2.28.81-3.68.81-1.18,0-2.28-.24-3.28-.72s-1.82-1.19-2.46-2.13h-.07v9.07h-5.25v-25.83h4.99ZM1185.93,413.34c.58-.35,1.05-.8,1.41-1.35.36-.55.61-1.2.76-1.94.15-.74.22-1.49.22-2.26s-.08-1.52-.24-2.26c-.16-.74-.43-1.4-.8-1.98-.37-.58-.84-1.05-1.42-1.41-.58-.36-1.29-.54-2.13-.54s-1.58.18-2.16.54c-.58.36-1.05.82-1.41,1.39-.36.57-.61,1.22-.76,1.96-.15.74-.22,1.51-.22,2.29s.08,1.52.24,2.26c.16.74.42,1.39.78,1.94.36.56.83,1.01,1.43,1.35.59.35,1.31.52,2.15.52s1.58-.17,2.16-.52M1165.07,417.3v-2.66h-.11c-.66,1.11-1.53,1.91-2.59,2.4-1.06.49-2.15.74-3.26.74-1.41,0-2.56-.18-3.46-.55-.9-.37-1.61-.89-2.13-1.57-.52-.68-.88-1.5-1.09-2.48-.21-.97-.32-2.05-.32-3.24v-11.77h5.26v10.8c0,1.58.25,2.76.74,3.53.49.78,1.37,1.17,2.63,1.17,1.43,0,2.47-.43,3.11-1.28.64-.85.96-2.25.96-4.2v-10.03h5.25v19.13h-4.99ZM1149.71,398.17v3.51h-3.85v9.47c0,.89.15,1.48.44,1.78.3.3.89.44,1.78.44.3,0,.58-.01.85-.04.27-.02.53-.06.78-.11v4.07c-.44.07-.94.12-1.48.15-.54.02-1.07.04-1.59.04-.81,0-1.59-.06-2.31-.17-.73-.11-1.37-.33-1.92-.65-.55-.32-.99-.78-1.31-1.37-.32-.59-.48-1.37-.48-2.33v-11.29h-3.18v-3.51h3.18v-5.74h5.25v5.74h3.85ZM1123.83,412.71c.79.76,1.92,1.15,3.4,1.15,1.06,0,1.97-.26,2.74-.79.76-.53,1.23-1.09,1.41-1.68h4.62c-.74,2.29-1.88,3.93-3.4,4.92-1.53.99-3.38,1.48-5.55,1.48-1.51,0-2.86-.24-4.07-.72-1.21-.48-2.23-1.16-3.07-2.05-.84-.89-1.49-1.95-1.94-3.18-.46-1.23-.68-2.59-.68-4.07s.23-2.76.7-4c.47-1.23,1.13-2.3,2-3.2.86-.9,1.89-1.61,3.09-2.13s2.52-.78,3.98-.78c1.63,0,3.05.31,4.26.94,1.21.63,2.2,1.47,2.98,2.54.78,1.06,1.34,2.27,1.68,3.63.34,1.36.47,2.78.37,4.26h-13.8c.07,1.7.51,2.94,1.3,3.7M1129.77,402.65c-.63-.69-1.59-1.04-2.87-1.04-.84,0-1.54.14-2.09.43-.55.28-1,.64-1.33,1.06-.33.42-.57.86-.7,1.33-.14.47-.22.89-.24,1.26h8.55c-.25-1.33-.68-2.34-1.31-3.03M1102.53,412.71c.79.76,1.92,1.15,3.4,1.15,1.06,0,1.97-.26,2.74-.79.76-.53,1.23-1.09,1.41-1.68h4.62c-.74,2.29-1.88,3.93-3.4,4.92-1.53.99-3.38,1.48-5.55,1.48-1.51,0-2.86-.24-4.07-.72-1.21-.48-2.23-1.16-3.07-2.05-.84-.89-1.49-1.95-1.94-3.18-.46-1.23-.68-2.59-.68-4.07s.23-2.76.7-4c.47-1.23,1.13-2.3,2-3.2.86-.9,1.89-1.61,3.09-2.13,1.2-.52,2.52-.78,3.98-.78,1.63,0,3.05.31,4.26.94,1.21.63,2.2,1.47,2.98,2.54.78,1.06,1.34,2.27,1.68,3.63.35,1.36.47,2.78.37,4.26h-13.8c.07,1.7.5,2.94,1.29,3.7M1108.47,402.65c-.63-.69-1.59-1.04-2.87-1.04-.84,0-1.54.14-2.09.43-.55.28-1,.64-1.33,1.06-.33.42-.57.86-.7,1.33-.14.47-.22.89-.24,1.26h8.55c-.25-1.33-.68-2.34-1.31-3.03M1072.14,390.88l6.18,18.17h.07l5.85-18.17h8.18v26.42h-5.44v-18.72h-.07l-6.47,18.72h-4.48l-6.48-18.54h-.07v18.54h-5.44v-26.42h8.18ZM1036.17,398.17v2.66h.11c.67-1.11,1.53-1.92,2.59-2.42,1.06-.51,2.15-.76,3.26-.76,1.41,0,2.56.19,3.46.57.9.38,1.61.91,2.13,1.59.52.68.88,1.51,1.09,2.48.21.98.31,2.05.31,3.24v11.77h-5.25v-10.8c0-1.58-.25-2.76-.74-3.53-.49-.78-1.37-1.16-2.63-1.16-1.43,0-2.47.42-3.11,1.28-.64.85-.96,2.25-.96,4.2v10.03h-5.25v-19.13h4.99ZM1008.83,403.59c.47-1.25,1.13-2.31,2-3.18.86-.88,1.9-1.55,3.11-2.04,1.21-.48,2.57-.72,4.07-.72s2.87.24,4.09.72,2.26,1.16,3.13,2.04c.86.88,1.53,1.94,2,3.18.47,1.24.7,2.63.7,4.16s-.23,2.91-.7,4.14c-.47,1.23-1.14,2.29-2,3.16-.86.88-1.91,1.55-3.13,2.02s-2.58.7-4.09.7-2.86-.24-4.07-.7c-1.21-.47-2.24-1.14-3.11-2.02-.86-.88-1.53-1.93-2-3.16-.47-1.23-.7-2.61-.7-4.14s.23-2.92.7-4.16M1013.6,409.99c.15.73.4,1.38.76,1.96.36.58.83,1.04,1.42,1.39.59.35,1.33.52,2.22.52s1.63-.17,2.24-.52c.6-.35,1.08-.81,1.44-1.39.36-.58.61-1.23.76-1.96.15-.73.22-1.47.22-2.24s-.07-1.52-.22-2.26c-.15-.74-.4-1.39-.76-1.96-.36-.57-.84-1.03-1.44-1.39-.61-.36-1.35-.54-2.24-.54s-1.63.18-2.22.54c-.59.36-1.07.82-1.42,1.39-.36.57-.61,1.22-.76,1.96-.15.74-.22,1.49-.22,2.26s.07,1.51.22,2.24M992.23,390.88v9.95h.11c.67-1.11,1.52-1.92,2.55-2.42,1.04-.51,2.05-.76,3.04-.76,1.41,0,2.56.19,3.46.57.9.38,1.61.91,2.13,1.59.52.68.88,1.51,1.09,2.48.21.98.31,2.05.31,3.24v11.77h-5.25v-10.8c0-1.58-.25-2.76-.74-3.53-.49-.78-1.37-1.16-2.63-1.16-1.43,0-2.47.42-3.11,1.28-.64.85-.96,2.25-.96,4.2v10.03h-5.25v-26.42h5.25ZM984.26,398.17v3.51h-3.85v9.47c0,.89.15,1.48.44,1.78s.89.44,1.78.44c.3,0,.58-.01.85-.04.27-.02.53-.06.78-.11v4.07c-.44.07-.94.12-1.48.15-.54.02-1.07.04-1.59.04-.81,0-1.59-.06-2.31-.17-.73-.11-1.37-.33-1.92-.65-.55-.32-.99-.78-1.31-1.37-.32-.59-.48-1.37-.48-2.33v-11.29h-3.18v-3.51h3.18v-5.74h5.25v5.74h3.85ZM960.41,423c-1.01.67-2.42,1-4.22,1-.54,0-1.08-.02-1.61-.06-.53-.04-1.07-.08-1.61-.13v-4.33c.49.05,1,.1,1.52.15.52.05,1.04.06,1.55.04.69-.07,1.2-.35,1.53-.81.33-.47.5-.99.5-1.55,0-.42-.07-.81-.22-1.18l-6.7-17.95h5.59l4.33,13.1h.07l4.18-13.1h5.44l-7.99,21.5c-.57,1.55-1.36,2.66-2.37,3.33M940.43,390.88c1.65,0,3.06.24,4.22.72,1.16.48,2.1,1.12,2.83,1.91.73.79,1.26,1.69,1.59,2.7.33,1.01.5,2.06.5,3.15s-.17,2.1-.5,3.13c-.33,1.02-.86,1.93-1.59,2.72-.73.79-1.67,1.42-2.83,1.9-1.16.48-2.57.72-4.22.72h-6.11v9.47h-5.81v-26.42h11.91ZM938.84,403.31c.67,0,1.31-.05,1.92-.15.62-.1,1.16-.29,1.63-.57.47-.28.84-.68,1.13-1.2.28-.52.43-1.2.43-2.03s-.14-1.52-.43-2.04c-.28-.52-.66-.92-1.13-1.2-.47-.28-1.01-.47-1.63-.57-.62-.1-1.26-.15-1.92-.15h-4.51v7.92h4.51ZM900.73,398.17v2.66h.11c.67-1.11,1.53-1.92,2.59-2.42,1.06-.51,2.15-.76,3.26-.76,1.41,0,2.56.19,3.46.57.9.38,1.61.91,2.13,1.59.52.68.88,1.51,1.09,2.48.21.98.31,2.05.31,3.24v11.77h-5.25v-10.8c0-1.58-.25-2.76-.74-3.53-.49-.78-1.37-1.16-2.63-1.16-1.43,0-2.47.42-3.11,1.28-.64.85-.96,2.25-.96,4.2v10.03h-5.25v-19.13h4.99ZM891.64,417.3h-5.25v-19.13h5.25v19.13ZM886.38,390.88h5.25v4.33h-5.25v-4.33ZM860.33,412.71c.79.76,1.92,1.15,3.4,1.15,1.06,0,1.97-.26,2.74-.79.77-.53,1.23-1.09,1.41-1.68h4.62c-.74,2.29-1.87,3.93-3.4,4.92-1.53.99-3.38,1.48-5.55,1.48-1.5,0-2.86-.24-4.07-.72-1.21-.48-2.23-1.16-3.07-2.05-.84-.89-1.49-1.95-1.94-3.18-.46-1.23-.69-2.59-.69-4.07s.24-2.76.7-4c.47-1.23,1.14-2.3,2-3.2.86-.9,1.89-1.61,3.09-2.13,1.2-.52,2.52-.78,3.98-.78,1.63,0,3.05.31,4.26.94,1.21.63,2.2,1.47,2.98,2.54.78,1.06,1.34,2.27,1.68,3.63.35,1.36.47,2.78.37,4.26h-13.8c.07,1.7.51,2.94,1.29,3.7M866.27,402.65c-.63-.69-1.59-1.04-2.87-1.04-.84,0-1.54.14-2.09.43-.55.28-1,.64-1.33,1.06-.33.42-.57.86-.7,1.33-.14.47-.22.89-.24,1.26h8.55c-.25-1.33-.68-2.34-1.31-3.03M842.53,401.61c-.84,0-1.54.19-2.11.57-.57.38-1.03.88-1.39,1.48-.36.6-.61,1.27-.76,2-.15.73-.22,1.45-.22,2.16s.07,1.39.22,2.11c.15.72.39,1.36.72,1.94.33.58.78,1.05,1.35,1.42.57.37,1.26.56,2.07.56,1.26,0,2.23-.35,2.9-1.06.68-.7,1.1-1.65,1.28-2.83h5.07c-.35,2.54-1.33,4.48-2.96,5.81s-3.71,2-6.25,2c-1.43,0-2.74-.24-3.94-.72-1.2-.48-2.21-1.15-3.05-2.02-.84-.86-1.49-1.89-1.96-3.09-.47-1.2-.7-2.51-.7-3.94s.22-2.85.65-4.13c.43-1.27,1.07-2.37,1.9-3.29.84-.93,1.86-1.65,3.07-2.16,1.21-.52,2.59-.78,4.14-.78,1.14,0,2.23.15,3.27.44,1.05.3,1.99.75,2.81,1.35.83.6,1.5,1.36,2.02,2.26.52.9.81,1.97.89,3.2h-5.14c-.34-2.19-1.64-3.29-3.88-3.29M816.64,398.17v2.66h.11c.67-1.11,1.53-1.92,2.59-2.42,1.06-.51,2.15-.76,3.26-.76,1.41,0,2.56.19,3.46.57.9.38,1.61.91,2.13,1.59.52.68.88,1.51,1.09,2.48.21.98.31,2.05.31,3.24v11.77h-5.25v-10.8c0-1.58-.25-2.76-.74-3.53-.49-.78-1.37-1.16-2.63-1.16-1.43,0-2.47.42-3.11,1.28-.64.85-.96,2.25-.96,4.2v10.03h-5.25v-19.13h4.99ZM796.03,412.71c.79.76,1.92,1.15,3.4,1.15,1.06,0,1.97-.26,2.74-.79.76-.53,1.23-1.09,1.41-1.68h4.62c-.74,2.29-1.88,3.93-3.4,4.92-1.53.99-3.38,1.48-5.55,1.48-1.51,0-2.86-.24-4.07-.72-1.21-.48-2.23-1.16-3.07-2.05-.84-.89-1.49-1.95-1.94-3.18-.46-1.23-.68-2.59-.68-4.07s.23-2.76.7-4c.47-1.23,1.13-2.3,2-3.2.86-.9,1.89-1.61,3.09-2.13,1.2-.52,2.52-.78,3.98-.78,1.63,0,3.05.31,4.26.94,1.21.63,2.2,1.47,2.98,2.54.78,1.06,1.34,2.27,1.68,3.63.34,1.36.47,2.78.37,4.26h-13.8c.07,1.7.51,2.94,1.3,3.7M801.97,402.65c-.63-.69-1.59-1.04-2.87-1.04-.84,0-1.54.14-2.09.43-.55.28-1,.64-1.33,1.06-.33.42-.57.86-.7,1.33-.14.47-.22.89-.24,1.26h8.55c-.25-1.33-.68-2.34-1.31-3.03M785.97,418.7c-.21.99-.66,1.9-1.35,2.76-.69.85-1.69,1.57-3,2.17-1.31.59-3.06.89-5.25.89-.94,0-1.89-.12-2.87-.35-.97-.23-1.86-.6-2.66-1.09-.8-.49-1.47-1.13-2-1.91-.53-.78-.83-1.71-.91-2.79h5.22c.25.99.73,1.67,1.44,2.05.72.38,1.54.57,2.48.57,1.48,0,2.56-.44,3.24-1.33.68-.89,1.01-2.01.98-3.37v-2.52h-.07c-.57,1.01-1.38,1.76-2.42,2.24-1.05.48-2.15.72-3.31.72-1.43,0-2.66-.25-3.7-.76-1.04-.51-1.89-1.2-2.55-2.07-.67-.88-1.15-1.9-1.46-3.07-.31-1.17-.46-2.41-.46-3.72,0-1.23.18-2.42.54-3.57.36-1.15.88-2.16,1.57-3.03.69-.88,1.55-1.57,2.57-2.09,1.02-.52,2.2-.78,3.53-.78,1.26,0,2.36.24,3.31.7.95.47,1.74,1.26,2.39,2.37h.07v-2.55h5v17.91c0,.76-.11,1.64-.31,2.63M778.77,412.34c.57-.3,1.04-.69,1.41-1.18.37-.49.65-1.05.83-1.68.18-.63.28-1.29.28-1.98,0-.79-.07-1.54-.22-2.24-.15-.7-.39-1.33-.74-1.87-.34-.54-.8-.97-1.37-1.29-.57-.32-1.28-.48-2.15-.48-.74,0-1.38.15-1.9.44-.53.3-.98.7-1.33,1.2-.36.51-.62,1.09-.78,1.74-.16.65-.24,1.34-.24,2.05s.07,1.38.2,2.05c.14.68.37,1.29.7,1.83.33.54.77.99,1.31,1.33.54.35,1.22.52,2.03.52.74,0,1.39-.15,1.96-.44M763.88,417.3h-5.25v-19.13h5.25v19.13ZM758.62,390.88h5.25v4.33h-5.25v-4.33ZM754.46,417.3h-5.25v-26.42h5.25v26.42ZM745.04,417.3h-5.25v-26.42h5.25v26.42ZM724.12,412.71c.79.76,1.92,1.15,3.4,1.15,1.06,0,1.97-.26,2.74-.79.76-.53,1.23-1.09,1.41-1.68h4.62c-.74,2.29-1.88,3.93-3.4,4.92-1.53.99-3.38,1.48-5.55,1.48-1.51,0-2.86-.24-4.07-.72-1.21-.48-2.23-1.16-3.07-2.05-.84-.89-1.49-1.95-1.94-3.18-.46-1.23-.68-2.59-.68-4.07s.23-2.76.7-4c.47-1.23,1.13-2.3,2-3.2.86-.9,1.89-1.61,3.09-2.13,1.2-.52,2.52-.78,3.98-.78,1.63,0,3.05.31,4.26.94,1.21.63,2.2,1.47,2.98,2.54.78,1.06,1.34,2.27,1.68,3.63.35,1.36.47,2.78.37,4.26h-13.8c.07,1.7.51,2.94,1.29,3.7M730.06,402.65c-.63-.69-1.58-1.04-2.87-1.04-.84,0-1.54.14-2.09.43-.55.28-1,.64-1.33,1.06-.33.42-.57.86-.7,1.33-.14.47-.22.89-.24,1.26h8.55c-.25-1.33-.68-2.34-1.31-3.03M716.19,398.17v3.51h-3.85v9.47c0,.89.15,1.48.44,1.78.3.3.89.44,1.78.44.3,0,.58-.01.85-.04.27-.02.53-.06.78-.11v4.07c-.44.07-.94.12-1.48.15-.54.02-1.07.04-1.59.04-.81,0-1.58-.06-2.31-.17-.73-.11-1.37-.33-1.92-.65-.55-.32-.99-.78-1.31-1.37-.32-.59-.48-1.37-.48-2.33v-11.29h-3.18v-3.51h3.18v-5.74h5.25v5.74h3.85ZM688.88,398.17v2.66h.11c.67-1.11,1.53-1.92,2.59-2.42,1.06-.51,2.15-.76,3.26-.76,1.41,0,2.56.19,3.46.57.9.38,1.61.91,2.13,1.59.52.68.88,1.51,1.09,2.48.21.98.31,2.05.31,3.24v11.77h-5.25v-10.8c0-1.58-.25-2.76-.74-3.53-.49-.78-1.37-1.16-2.63-1.16-1.43,0-2.47.42-3.11,1.28-.64.85-.96,2.25-.96,4.2v10.03h-5.25v-19.13h4.99ZM679.39,417.3h-5.81v-26.42h5.81v26.42ZM658.59,417.3h-5.25v-26.42h5.25v26.42ZM643.95,409.9c0,.3-.03.69-.09,1.18-.06.49-.23.98-.5,1.46-.27.48-.69.89-1.26,1.24-.57.35-1.37.52-2.4.52-.42,0-.83-.04-1.22-.11-.39-.07-.74-.2-1.04-.39-.3-.18-.53-.44-.7-.76-.17-.32-.26-.72-.26-1.18,0-.49.09-.9.26-1.22.17-.32.4-.59.68-.8.28-.21.62-.38,1-.5.38-.12.77-.22,1.16-.3.42-.07.84-.14,1.26-.18.42-.05.82-.11,1.2-.19.38-.07.74-.17,1.07-.28.33-.11.61-.26.83-.46v1.96ZM637.06,404.05c.1-1.04.44-1.78,1.04-2.22.59-.44,1.41-.67,2.44-.67.47,0,.91.03,1.31.09.41.06.76.18,1.07.37.31.18.55.44.74.78.18.33.28.78.28,1.35.02.54-.14.96-.48,1.24-.35.28-.81.5-1.41.65-.59.15-1.27.26-2.03.33-.76.07-1.54.17-2.33.3-.79.12-1.57.29-2.35.5-.78.21-1.47.52-2.07.94-.61.42-1.1.98-1.48,1.68-.38.7-.57,1.6-.57,2.68,0,.99.17,1.84.5,2.55.33.72.8,1.31,1.39,1.78.59.47,1.28.81,2.07,1.04.79.22,1.64.33,2.55.33,1.18,0,2.34-.17,3.48-.52,1.14-.35,2.12-.95,2.96-1.81.02.32.07.63.13.94.06.31.14.61.24.91h5.33c-.25-.39-.42-.99-.52-1.78-.1-.79-.15-1.61-.15-2.48v-9.95c0-1.16-.26-2.09-.78-2.79s-1.18-1.25-2-1.65c-.81-.39-1.71-.66-2.7-.8-.99-.13-1.96-.2-2.92-.2-1.06,0-2.11.11-3.16.31-1.05.21-1.99.56-2.83,1.05-.84.49-1.53,1.15-2.07,1.96-.54.81-.85,1.84-.93,3.07h5.25ZM627.9,417.3h-5.25v-19.13h5.25v19.13ZM622.65,390.88h5.25v4.33h-5.25v-4.33ZM610.46,401.61c-.84,0-1.54.19-2.11.57-.57.38-1.03.88-1.39,1.48-.36.6-.61,1.27-.76,2-.15.73-.22,1.45-.22,2.16s.07,1.39.22,2.11c.15.72.39,1.36.72,1.94.33.58.78,1.05,1.35,1.42.57.37,1.26.56,2.07.56,1.26,0,2.23-.35,2.9-1.06.68-.7,1.1-1.65,1.28-2.83h5.07c-.35,2.54-1.33,4.48-2.96,5.81-1.63,1.33-3.71,2-6.25,2-1.43,0-2.74-.24-3.94-.72-1.2-.48-2.21-1.15-3.05-2.02-.84-.86-1.49-1.89-1.96-3.09-.47-1.2-.7-2.51-.7-3.94s.22-2.85.65-4.13c.43-1.27,1.07-2.37,1.91-3.29.84-.93,1.86-1.65,3.07-2.16,1.21-.52,2.59-.78,4.14-.78,1.13,0,2.23.15,3.27.44,1.05.3,1.99.75,2.81,1.35.83.6,1.5,1.36,2.02,2.26.52.9.81,1.97.89,3.2h-5.14c-.35-2.19-1.64-3.29-3.89-3.29M592.13,390.88h5.25v4.33h-5.25v-4.33ZM597.39,417.3h-5.25v-19.13h5.25v19.13ZM576.93,401.68v-3.51h3.14v-1.48c0-1.7.53-3.1,1.59-4.18,1.06-1.09,2.66-1.63,4.81-1.63.47,0,.94.02,1.41.06.47.04.93.07,1.37.09v3.92c-.62-.07-1.26-.11-1.92-.11-.71,0-1.23.17-1.53.5-.31.33-.46.89-.46,1.68v1.15h3.63v3.51h-3.63v15.61h-5.25v-15.61h-3.14ZM574.65,417.3h-5.25v-19.13h5.25v19.13ZM569.4,390.88h5.25v4.33h-5.25v-4.33ZM566.56,398.17v3.51h-3.85v9.47c0,.89.15,1.48.44,1.78.3.3.89.44,1.78.44.3,0,.58-.01.85-.04.27-.02.53-.06.78-.11v4.07c-.44.07-.94.12-1.48.15-.54.02-1.07.04-1.59.04-.81,0-1.58-.06-2.31-.17-.73-.11-1.37-.33-1.92-.65-.56-.32-.99-.78-1.31-1.37-.32-.59-.48-1.37-.48-2.33v-11.29h-3.18v-3.51h3.18v-5.74h5.25v5.74h3.85ZM545.61,398.17v3.55h.07c.25-.59.58-1.14,1-1.65.42-.51.9-.94,1.44-1.3.54-.36,1.12-.63,1.74-.83.62-.2,1.26-.3,1.92-.3.35,0,.73.06,1.15.19v4.88c-.25-.05-.54-.09-.89-.13-.35-.04-.68-.06-1-.06-.96,0-1.78.16-2.44.48-.67.32-1.2.76-1.61,1.31-.41.55-.7,1.2-.87,1.94-.17.74-.26,1.54-.26,2.4v8.62h-5.25v-19.13h4.99ZM528.7,390.88l9.88,26.42h-6.03l-2-5.88h-9.88l-2.07,5.88h-5.85l9.99-26.42h5.96ZM529.03,407.09l-3.33-9.69h-.07l-3.44,9.69h6.85ZM489.07,412.71c.79.76,1.92,1.15,3.4,1.15,1.06,0,1.97-.26,2.74-.79.76-.53,1.23-1.09,1.41-1.68h4.62c-.74,2.29-1.88,3.93-3.4,4.92-1.53.99-3.38,1.48-5.55,1.48-1.51,0-2.86-.24-4.07-.72-1.21-.48-2.23-1.16-3.07-2.05-.84-.89-1.49-1.95-1.94-3.18-.46-1.23-.68-2.59-.68-4.07s.23-2.76.7-4c.47-1.23,1.13-2.3,2-3.2.86-.9,1.89-1.61,3.09-2.13,1.2-.52,2.52-.78,3.98-.78,1.63,0,3.05.31,4.26.94,1.21.63,2.2,1.47,2.98,2.54.78,1.06,1.34,2.27,1.68,3.63.35,1.36.47,2.78.37,4.26h-13.8c.07,1.7.51,2.94,1.3,3.7M495.01,402.65c-.63-.69-1.58-1.04-2.87-1.04-.84,0-1.54.14-2.09.43-.55.28-1,.64-1.33,1.06-.33.42-.57.86-.7,1.33-.14.47-.22.89-.24,1.26h8.55c-.25-1.33-.68-2.34-1.31-3.03M466.78,390.88v9.95h.11c.67-1.11,1.52-1.92,2.55-2.42,1.04-.51,2.05-.76,3.03-.76,1.41,0,2.56.19,3.46.57.9.38,1.61.91,2.13,1.59.52.68.88,1.51,1.09,2.48.21.98.32,2.05.32,3.24v11.77h-5.25v-10.8c0-1.58-.25-2.76-.74-3.53-.49-.78-1.37-1.16-2.63-1.16-1.43,0-2.47.42-3.11,1.28-.64.85-.96,2.25-.96,4.2v10.03h-5.25v-26.42h5.25ZM437.49,395.76v-4.88h21.65v4.88h-7.92v21.53h-5.81v-21.53h-7.92Z" fill="#1cafe6"/>
    <path d="M1162.24,325.87v6.05h.25c1.51-2.52,3.47-4.35,5.88-5.5,2.41-1.15,4.87-1.72,7.39-1.72,3.19,0,5.81.43,7.85,1.3,2.04.87,3.65,2.07,4.83,3.61,1.18,1.54,2,3.42,2.48,5.63.48,2.21.71,4.66.71,7.35v26.71h-11.93v-24.53c0-3.58-.56-6.26-1.68-8.02-1.12-1.76-3.11-2.65-5.96-2.65-3.25,0-5.6.97-7.06,2.9-1.46,1.93-2.18,5.11-2.18,9.53v22.76h-11.93v-43.43h11.34ZM1142.4,369.3h-11.93v-43.43h11.93v43.43ZM1130.47,309.32h11.93v9.83h-11.93v-9.83ZM1109.96,352.5c0,.67-.07,1.57-.21,2.69-.14,1.12-.52,2.23-1.13,3.32-.62,1.09-1.57,2.03-2.86,2.81-1.29.79-3.11,1.18-5.46,1.18-.95,0-1.88-.08-2.77-.25-.9-.17-1.68-.46-2.35-.88s-1.2-.99-1.6-1.72c-.39-.73-.59-1.62-.59-2.69,0-1.12.2-2.04.59-2.77.39-.73.91-1.33,1.55-1.81.64-.48,1.4-.85,2.27-1.13.87-.28,1.75-.5,2.65-.67.95-.17,1.9-.31,2.86-.42.95-.11,1.86-.25,2.73-.42.87-.17,1.68-.38,2.44-.63.76-.25,1.39-.6,1.89-1.05v4.45ZM1094.34,339.23c.22-2.35,1.01-4.03,2.35-5.04s3.19-1.51,5.54-1.51c1.06,0,2.06.07,2.98.21.92.14,1.73.42,2.44.84.7.42,1.26,1.01,1.68,1.76.42.76.63,1.78.63,3.07.05,1.23-.31,2.17-1.09,2.81-.78.64-1.85,1.13-3.19,1.47-1.34.34-2.89.59-4.62.76-1.74.17-3.5.39-5.29.67-1.79.28-3.57.66-5.33,1.13-1.76.48-3.33,1.19-4.7,2.14-1.37.95-2.49,2.23-3.36,3.82-.87,1.6-1.3,3.63-1.3,6.09,0,2.24.38,4.17,1.13,5.8.76,1.62,1.81,2.97,3.15,4.03,1.34,1.06,2.91,1.85,4.7,2.35,1.79.5,3.72.76,5.8.76,2.69,0,5.32-.39,7.9-1.18,2.58-.78,4.82-2.15,6.72-4.12.05.73.15,1.44.29,2.14.14.7.32,1.39.55,2.06h12.1c-.56-.9-.95-2.24-1.18-4.03-.22-1.79-.34-3.67-.34-5.63v-22.6c0-2.63-.59-4.75-1.76-6.34-1.18-1.6-2.69-2.84-4.54-3.74-1.85-.89-3.89-1.5-6.13-1.81-2.24-.31-4.45-.46-6.64-.46-2.41,0-4.8.24-7.18.71-2.38.48-4.52,1.27-6.43,2.39-1.9,1.12-3.47,2.6-4.7,4.45-1.23,1.85-1.93,4.17-2.1,6.97h11.93ZM1027.5,309.32l14.03,41.24h.17l13.27-41.24h18.56v59.98h-12.35v-42.5h-.17l-14.7,42.5h-10.16l-14.7-42.08h-.17v42.08h-12.35v-59.98h18.56ZM999.5,351.49h-25.28v-10.25h25.28v10.25ZM936.8,325.87v6.05h.25c1.51-2.52,3.47-4.35,5.88-5.5,2.41-1.15,4.87-1.72,7.39-1.72,3.19,0,5.81.43,7.85,1.3,2.04.87,3.65,2.07,4.83,3.61,1.18,1.54,2,3.42,2.48,5.63.47,2.21.71,4.66.71,7.35v26.71h-11.93v-24.53c0-3.58-.56-6.26-1.68-8.02-1.12-1.76-3.11-2.65-5.96-2.65-3.25,0-5.6.97-7.06,2.9-1.46,1.93-2.18,5.11-2.18,9.53v22.76h-11.93v-43.43h11.34ZM916.95,369.3h-11.93v-43.43h11.93v43.43ZM905.03,309.32h11.93v9.83h-11.93v-9.83ZM870.29,358.88c1.79,1.74,4.37,2.6,7.73,2.6,2.41,0,4.48-.6,6.22-1.81,1.73-1.2,2.8-2.48,3.19-3.82h10.5c-1.68,5.21-4.26,8.93-7.73,11.17-3.47,2.24-7.67,3.36-12.6,3.36-3.42,0-6.5-.55-9.24-1.64-2.74-1.09-5.07-2.65-6.97-4.66-1.91-2.02-3.38-4.42-4.41-7.22-1.04-2.8-1.55-5.88-1.55-9.24s.53-6.27,1.6-9.07c1.06-2.8,2.58-5.22,4.54-7.27,1.96-2.04,4.3-3.65,7.01-4.83,2.72-1.18,5.73-1.76,9.03-1.76,3.7,0,6.92.71,9.66,2.14,2.74,1.43,5,3.35,6.76,5.75,1.76,2.41,3.04,5.15,3.82,8.23.78,3.08,1.06,6.3.84,9.66h-31.33c.17,3.86,1.15,6.66,2.94,8.4M883.77,336.03c-1.43-1.57-3.6-2.35-6.51-2.35-1.91,0-3.49.32-4.75.97-1.26.64-2.27,1.44-3.02,2.39-.76.95-1.29,1.96-1.6,3.02-.31,1.06-.49,2.02-.55,2.86h19.4c-.56-3.02-1.55-5.32-2.98-6.89M820.49,309.32v22.6h.25c1.51-2.52,3.44-4.35,5.8-5.5,2.35-1.15,4.65-1.72,6.89-1.72,3.19,0,5.81.43,7.85,1.3,2.04.87,3.65,2.07,4.83,3.61,1.18,1.54,2,3.42,2.48,5.63.48,2.21.71,4.66.71,7.35v26.71h-11.93v-24.53c0-3.58-.56-6.26-1.68-8.02-1.12-1.76-3.11-2.65-5.96-2.65-3.25,0-5.6.97-7.06,2.9-1.46,1.93-2.18,5.11-2.18,9.53v22.76h-11.93v-59.98h11.93ZM782.55,309.32c2.69,0,5.11.43,7.27,1.3,2.16.87,4,2.06,5.54,3.57,1.54,1.51,2.72,3.26,3.53,5.25.81,1.99,1.22,4.13,1.22,6.43,0,3.53-.74,6.58-2.23,9.16-1.48,2.58-3.91,4.54-7.27,5.88v.17c1.62.45,2.97,1.13,4.03,2.06,1.06.92,1.93,2.02,2.6,3.28s1.16,2.65,1.47,4.16c.31,1.51.52,3.02.63,4.54.05.95.11,2.07.17,3.36.05,1.29.15,2.6.29,3.95.14,1.34.36,2.62.67,3.82.31,1.21.77,2.23,1.39,3.07h-13.19c-.73-1.9-1.18-4.17-1.34-6.8-.17-2.63-.42-5.15-.76-7.56-.45-3.14-1.4-5.43-2.86-6.89-1.46-1.46-3.84-2.18-7.14-2.18h-13.19v23.44h-13.19v-59.98h32.34ZM777.85,336.45c3.02,0,5.29-.67,6.8-2.02,1.51-1.34,2.27-3.53,2.27-6.55s-.76-5.03-2.27-6.34c-1.51-1.31-3.78-1.97-6.8-1.97h-14.45v16.88h14.45ZM704.43,352.5c0,.67-.07,1.57-.21,2.69-.14,1.12-.52,2.23-1.13,3.32-.62,1.09-1.57,2.03-2.86,2.81-1.29.79-3.11,1.18-5.46,1.18-.95,0-1.88-.08-2.77-.25-.9-.17-1.68-.46-2.35-.88s-1.21-.99-1.6-1.72c-.39-.73-.59-1.62-.59-2.69,0-1.12.19-2.04.59-2.77.39-.73.91-1.33,1.55-1.81.64-.48,1.4-.85,2.27-1.13.87-.28,1.75-.5,2.65-.67.95-.17,1.9-.31,2.86-.42.95-.11,1.86-.25,2.73-.42.87-.17,1.68-.38,2.44-.63.76-.25,1.39-.6,1.89-1.05v4.45ZM688.81,339.23c.22-2.35,1.01-4.03,2.35-5.04,1.34-1.01,3.19-1.51,5.54-1.51,1.06,0,2.06.07,2.98.21.92.14,1.73.42,2.44.84.7.42,1.26,1.01,1.68,1.76.42.76.63,1.78.63,3.07.05,1.23-.31,2.17-1.09,2.81-.78.64-1.85,1.13-3.19,1.47-1.34.34-2.89.59-4.62.76-1.74.17-3.5.39-5.29.67-1.79.28-3.57.66-5.33,1.13-1.76.48-3.33,1.19-4.7,2.14-1.37.95-2.49,2.23-3.36,3.82-.87,1.6-1.3,3.63-1.3,6.09,0,2.24.38,4.17,1.13,5.8.76,1.62,1.81,2.97,3.15,4.03,1.34,1.06,2.91,1.85,4.7,2.35,1.79.5,3.72.76,5.8.76,2.69,0,5.32-.39,7.9-1.18,2.58-.78,4.82-2.15,6.72-4.12.05.73.15,1.44.29,2.14.14.7.32,1.39.55,2.06h12.1c-.56-.9-.95-2.24-1.18-4.03-.23-1.79-.34-3.67-.34-5.63v-22.6c0-2.63-.59-4.75-1.76-6.34-1.18-1.6-2.69-2.84-4.54-3.74-1.85-.89-3.89-1.5-6.13-1.81-2.24-.31-4.45-.46-6.64-.46-2.41,0-4.8.24-7.18.71-2.38.48-4.52,1.27-6.43,2.39-1.9,1.12-3.47,2.6-4.7,4.45-1.23,1.85-1.93,4.17-2.1,6.97h11.93ZM671.76,325.87v7.98h-8.74v21.5c0,2.02.34,3.36,1.01,4.03.67.67,2.02,1.01,4.03,1.01.67,0,1.32-.03,1.93-.08.62-.06,1.2-.14,1.76-.25v9.24c-1.01.17-2.13.28-3.36.34-1.23.06-2.44.08-3.61.08-1.85,0-3.6-.13-5.25-.38-1.65-.25-3.11-.74-4.37-1.47-1.26-.73-2.26-1.76-2.98-3.11-.73-1.34-1.09-3.11-1.09-5.29v-25.62h-7.22v-7.98h7.22v-13.02h11.93v13.02h8.74ZM627.61,352.5c0,.67-.07,1.57-.21,2.69-.14,1.12-.52,2.23-1.13,3.32-.62,1.09-1.57,2.03-2.86,2.81-1.29.79-3.11,1.18-5.46,1.18-.95,0-1.88-.08-2.77-.25-.9-.17-1.68-.46-2.35-.88s-1.2-.99-1.6-1.72c-.39-.73-.59-1.62-.59-2.69,0-1.12.2-2.04.59-2.77.39-.73.91-1.33,1.55-1.81.64-.48,1.4-.85,2.27-1.13.87-.28,1.75-.5,2.65-.67.95-.17,1.9-.31,2.86-.42.95-.11,1.86-.25,2.73-.42.87-.17,1.68-.38,2.44-.63s1.39-.6,1.89-1.05v4.45ZM611.98,339.23c.22-2.35,1.01-4.03,2.35-5.04s3.19-1.51,5.54-1.51c1.06,0,2.06.07,2.98.21.92.14,1.73.42,2.44.84.7.42,1.26,1.01,1.68,1.76s.63,1.78.63,3.07c.06,1.23-.31,2.17-1.09,2.81-.79.64-1.85,1.13-3.19,1.47-1.34.34-2.88.59-4.62.76-1.74.17-3.5.39-5.29.67-1.79.28-3.57.66-5.33,1.13-1.76.48-3.33,1.19-4.7,2.14-1.37.95-2.49,2.23-3.36,3.82-.87,1.6-1.3,3.63-1.3,6.09,0,2.24.38,4.17,1.13,5.8.76,1.62,1.81,2.97,3.15,4.03,1.34,1.06,2.91,1.85,4.7,2.35,1.79.5,3.72.76,5.8.76,2.69,0,5.32-.39,7.9-1.18,2.57-.78,4.82-2.15,6.72-4.12.05.73.15,1.44.29,2.14.14.7.32,1.39.55,2.06h12.1c-.56-.9-.95-2.24-1.18-4.03-.22-1.79-.34-3.67-.34-5.63v-22.6c0-2.63-.59-4.75-1.76-6.34-1.18-1.6-2.69-2.84-4.54-3.74-1.85-.89-3.89-1.5-6.13-1.81-2.24-.31-4.45-.46-6.64-.46-2.41,0-4.8.24-7.18.71-2.38.48-4.52,1.27-6.43,2.39-1.9,1.12-3.47,2.6-4.7,4.45-1.23,1.85-1.93,4.17-2.1,6.97h11.93ZM566.9,309.32c3.86,0,7.46.62,10.79,1.85,3.33,1.23,6.22,3.08,8.65,5.54,2.44,2.46,4.34,5.54,5.71,9.24,1.37,3.7,2.06,8.04,2.06,13.02,0,4.37-.56,8.4-1.68,12.1-1.12,3.7-2.82,6.89-5.08,9.58-2.27,2.69-5.1,4.8-8.48,6.34-3.39,1.54-7.38,2.31-11.97,2.31h-25.87v-59.98h25.87ZM565.97,358.21c1.9,0,3.75-.31,5.54-.92,1.79-.62,3.39-1.64,4.79-3.07,1.4-1.43,2.52-3.29,3.36-5.59.84-2.3,1.26-5.1,1.26-8.4,0-3.02-.29-5.75-.88-8.19-.59-2.44-1.55-4.52-2.9-6.26-1.34-1.73-3.12-3.07-5.33-3.99-2.21-.92-4.94-1.39-8.19-1.39h-9.41v37.8h11.76ZM513.05,382.23c-2.3,1.51-5.49,2.27-9.58,2.27-1.23,0-2.45-.04-3.65-.13-1.21-.08-2.42-.18-3.65-.29v-9.83c1.12.11,2.27.22,3.44.34,1.18.11,2.35.14,3.53.08,1.57-.17,2.73-.78,3.49-1.85.76-1.06,1.13-2.24,1.13-3.53,0-.95-.17-1.85-.5-2.69l-15.2-40.74h12.68l9.83,29.74h.17l9.49-29.74h12.35l-18.14,48.8c-1.29,3.53-3.08,6.05-5.38,7.56M468.4,309.32c3.75,0,6.94.55,9.58,1.64,2.63,1.09,4.77,2.53,6.43,4.33,1.65,1.79,2.86,3.84,3.61,6.13.76,2.3,1.13,4.68,1.13,7.14s-.38,4.78-1.13,7.1c-.76,2.32-1.96,4.38-3.61,6.17-1.65,1.79-3.79,3.23-6.43,4.33-2.63,1.09-5.82,1.64-9.58,1.64h-13.86v21.5h-13.19v-59.98h27.05ZM464.79,337.55c1.51,0,2.97-.11,4.37-.34,1.4-.22,2.63-.66,3.7-1.3,1.06-.64,1.92-1.55,2.56-2.73.64-1.18.97-2.72.97-4.62s-.32-3.44-.97-4.62c-.64-1.18-1.5-2.09-2.56-2.73-1.06-.64-2.3-1.08-3.7-1.3-1.4-.22-2.86-.34-4.37-.34h-10.25v17.98h10.25Z" fill="#1cafe6"/>
  </g>
  <path d="M296.07,472.57v-101.5l-94.98-49.62,94.98,151.12ZM201.09,422.95l94.98,49.62-94.98-151.12h0s0,0,0,0v101.5Z" fill="#1cafe6"/>
  <polygon points="300.93 361.86 206.63 312.24 301.61 263.46 396.6 312.52 300.93 361.86" fill="#1cafe6"/>
  <polygon points="307.16 371.12 307.16 472.62 402.14 422.95 402.14 321.45 307.16 371.12" fill="#1cafe6"/>
  <path d="M401.86,304.16v-101.49l-94.98-49.62,94.98,151.12ZM306.87,153.04v101.49l94.98,49.63-94.98-151.12h0s0,0,0,0Z" fill="#1cafe6"/>
  <path d="M296.07,586.38v-101.5l-94.98-49.62,94.98,151.12ZM201.09,536.76l94.98,49.63-94.98-151.12v101.49Z" fill="#1cafe6"/>
</svg>